<svg xmlns="http://www.w3.org/2000/svg" width="44.306" height="44.306" viewBox="0 0 44.306 44.306"><path d="M40.9,3.4a11.747,11.747,0,0,0-16.534,0l-6.81,6.81a11.619,11.619,0,0,0-2.81,4.533,11.7,11.7,0,0,0-4.539,2.815L3.4,24.372A11.691,11.691,0,0,0,19.935,40.906l6.81-6.81a11.618,11.618,0,0,0,2.81-4.533,11.7,11.7,0,0,0,4.539-2.815l6.81-6.81A11.747,11.747,0,0,0,40.9,3.4ZM15.277,23.519a11.693,11.693,0,0,0,5.511,5.512l-6.364,6.364A3.891,3.891,0,0,1,8.93,29.883Zm9.631,8.74-6.81,6.81a9.093,9.093,0,0,1-12.86-12.86l6.81-6.81a9.123,9.123,0,0,1,2.111-1.573,11.784,11.784,0,0,0,.212,2.972,6.494,6.494,0,0,0-.486.439l-6.793,6.81a6.489,6.489,0,0,0,9.168,9.186l6.81-6.81a6.506,6.506,0,0,0,0-9.186,3.9,3.9,0,0,1-1.006-3.765,9.1,9.1,0,0,1,2.843,14.788Zm4.12-11.469a11.693,11.693,0,0,0-5.511-5.512l6.364-6.364a3.9,3.9,0,0,1,5.511,5.511ZM39.067,18.1l-6.81,6.81a9.123,9.123,0,0,1-2.111,1.573,11.784,11.784,0,0,0-.212-2.972,6.512,6.512,0,0,0,.486-.439l6.81-6.81a6.5,6.5,0,1,0-9.185-9.186l-6.81,6.81a6.506,6.506,0,0,0,0,9.186,3.9,3.9,0,0,1,1.006,3.765A9.1,9.1,0,0,1,19.4,12.05l6.81-6.81A9.093,9.093,0,0,1,39.067,18.1Z" transform="translate(0 -0.001)" fill="#0e336f"></path></svg>