<svg xmlns="http://www.w3.org/2000/svg" width="353.413" height="88.857" viewBox="0 0 353.413 88.857"><g id="Grupo_163" data-name="Grupo 163" transform="translate(0.668 0.669)"><g id="Grupo_37" data-name="Grupo 37" transform="translate(1.332 1.331)"><path id="Trazado_63" data-name="Trazado 63" d="M25.837,17.007H359.8a6.516,6.516,0,0,1,6.622,6.364V95.5a6.516,6.516,0,0,1-6.622,6.364H23.63A6.516,6.516,0,0,1,17.008,95.5V23.371a6.516,6.516,0,0,1,6.622-6.364Z" transform="translate(-17.008 -17.007)" fill="#fff" fill-rule="evenodd"></path><path id="Trazado_64" data-name="Trazado 64" d="M25.837,17.007H359.8a6.516,6.516,0,0,1,6.622,6.364V95.5a6.516,6.516,0,0,1-6.622,6.364H23.63A6.516,6.516,0,0,1,17.008,95.5V23.371a6.516,6.516,0,0,1,6.622-6.364Z" transform="translate(-17.008 -17.007)" fill="none" stroke="#fff" stroke-linecap="round" stroke-linejoin="round" stroke-width="4"></path><path id="Trazado_65" data-name="Trazado 65" d="M25.837,17.007H359.8a6.516,6.516,0,0,1,6.622,6.364V95.5a6.516,6.516,0,0,1-6.622,6.364H23.63A6.516,6.516,0,0,1,17.008,95.5V23.371a6.516,6.516,0,0,1,6.622-6.364Z" transform="translate(-17.008 -17.007)" fill="#0090df" fill-rule="evenodd"></path><path id="Trazado_66" data-name="Trazado 66" d="M209.918,185.091v2.817h-.232l-.331.1-.3.1-.265.2-.265.166-.2.265-.166.3.265.066.265.1.265.166.265.133.53.431.166.2v2.386l-.7-.331-.895-.5-.862-.464-.829-.365-.53-.232-.464-.232-.2-.166-.133-.166-.1-.232-.033-.265.033-.563.1-.6.166-.6.2-.5.232-.5.232-.431.265-.3.265-.232.365-.133.53-.133,1.491-.3Zm0-12.86-.7.961-.365.564-.3.563-.2.563-.033.265v.63l.1.331.133.3.2.3-.729-.365-.729-.3-.8-.2-.729-.232-.8-.133-.8-.166-1.69-.166-.762-.1-.563-.1-.5-.166-.4-.166-.8-.3-.5-.133-.63-.1h-.4l-.464.1-.4.2-.365.232-.365.3-.3.331-.2.4-.1.4-.066.331-.033.331.033.663.166.7.265.762.63,2.453.1.563v1.69l-.033,1.028-.033.895.033.365.066.265.133.2.2.1.4.265.464.265.431.331.365.3.365.166.3.232.232.3.2.431.066.232.133.2.2.2.2.166.5.3.563.265,1.226.431.53.232.431.232v-.729l-.1-.663-.166-.7-.166-.63-.232-.563-.265-.464-.265-.331-.133-.1-.166-.1H201.9l-.53.1h-.3l-.232-.1-.232-.1-.166-.265.033-.563-.066-.464-.133-.4-.133-.166-.133-.166-.4-.365-.332-.365-.232-.365-.166-.364-.166-.431-.1-.5v-.5l-.033-.564.033-1.061.1-.961.066-.4v-.232l-.066-.2-.033-.166-.133-.2-.2-.166-.331-.1.166-.1.265-.066.265-.033h.265l.6.066.431.133.762.265.7.365.7.464.729.53.928.63.895.53.961.431,1.027.431,1.028.4.928.3.464.1.464.1.331.033Zm0-22.24-.265.431v.3l-.033.829-.1,1.458-.232,2.121-.331,2.287-.265,1.094-.133.5-.133.331-.232.4-.1.431-.1.4v.4l.1.265.1.133.4.3.232.2.265.2.232.3.232.431.1.232.133.166.133.066v-1.657h-.066l-.066-.1v-.166l-.033-.166-.265-.265-.232-.2-.066-.1-.033-.1.066-.066.066-.1.2-.133h.431Zm0,42.524.133.066.53.3.5.365.829.829.365.331.365.265.232.033.166.066h.2v-2.85h-.265l-.365-.066-.365-.2-.928-.53-1.028-.663-.365-.331Zm3.314-8.153-.464.1-.895.232-.961.232-.994.166v2.817l.133-.033.365-.033,1.027.033.928.066.862.066Zm0-17.069-.265.431-.8,1.293-.829,1.16-1.392,2.022-.033.033v9.943h.7l.066-.033v-.033l-.033-.2-.132-.265-.066-.4.232.166.265.133.4.365.365.431.265.464.365.7.166.2.1.1h.033l.6-.1Zm0-24.957-.431.729-.2.53-.166.53-.862-.464-.431-.066h-.6l-.4-.033.1.464.2.4.232.431.232.365.431.7.166.331.1.365-.033.3-.133.431-.232.5-.265.5-.63,1.061-.4.6V160.2h.033l.265.066.265.133.166.2.033.2-.033.365-.166.365-.166.1-.166.033-.2-.066h-.033v1.657l.033.033.2.066.166.033.232-.033.431-.133.431-.331.431-.4.365-.464.232-.53.066.033.066-.033h.3l.1.1.066.166v.3l-.1.232-.133.2-.4.331-.166.166-.166.166-.1.2v.265l.033.1.1.066.331.1.365-.066h.331l.1-.033v-10.44l-.1.033H212.9l-.1-.1-.033-.2v-.5h0l-.132.066H212.5v-.1l.033-.1.133-.133.365-.3.2-.232Zm0,52.434h0l.232-.066.365-.1.431-.033h.53l.63.033.232.066.3.1.53.331.1.066v-2.254l-.166.066h-.431l-.166-.133-.3-.265-.3-.3-.365-.331-.232-.066-.265-.033-.63.066h-.5Zm3.348-11.136-.232.066-1.16.2-1.193.265-.762.2v3.646l.829.1,1.458.2.663.033h.4Zm0-25.222v24.659l-.862.2-1.492.3-.994.133V167.292l.53-.829.6-1.26.265-.6.166-.563.1-.53.033-.5-.033-1.326.033-.63.133-.563.2-.564.365-.563.265-.265.265-.331ZM213.232,142.3v9.479l.066-.066.232-.265.232-.2.1-.033.033-.033.033.066.033.133.033.033-.133.133-.1.166.066.563-.033.265-.066.265-.1.2-.133.166-.166.1-.1.066v10.44l.2-.066.232-.1.2-.166.133-.2.133-.265.1-.265.1-.6.166-1.425.166-.663.1-.331.132-.3.265-.365.265-.365.265-.331.3-.3.6-.5V143.893l-.265-.133-.331-.066-.265-.1-.033.4.033.331.1.265.1.265.265.464.133.265.033.331v.166l-.1.232-.1.166-.2.166-.1-.53-.132-.431-.365-.729-.166-.364-.132-.365-.1-.365-.033-.431.066-.5v-.5l.265.133.3.133.7.3.331.166v-1.989l-.862.033-.4.033-.331.066-.331.166-.4.1Zm3.348,52.864.464.232.232.1.265.033.232-.033.2-.066.4-.265.331-.132.464-.133.663-.1.895-.033.1-.066h.1v-.1l-.033-.066-.2-.2-.265-.265-.7-.53-.6-.431-.431-.265-.431-.232-.431-.133-.464-.066-.1.033-.1.066-.232.232-.166.1-.166.066h-.033Zm0-37.618.1-.1.729-.53,1.127-.829.53-.431.431-.4.4-.5.364-.6.3-.8.3-.994.166-1.657.166.7.066.729v.829l-.066.365-.1.4-.2.53-.331.5-.365.53-.5.53-.53.5-.7.6-1.558,1.226-.331.265v24.659l.563-.166.7-.2.63-.265.6-.2.5-.133.564-.033.53.033-.928.265-.762.3-.729.331-.829.365-.829.265v4.706h.265l2.022.033h.895l.8-.066.7-.1.3-.1.265-.132.2-.166.2-.2.166-.265.1-.265.133-.3.166-.265.2-.232.232-.166.066.265v.265l-.066.663-.066.5v.2l.066.066.332.133.4.1.961.166.4.033v-35.2l-.2-.6-.365-.8-.365-.8-.431-.862.431.431.365.464.365.5.2.331v-6.1l-1.094.1-.53.033-.464-.033-.5-.133-.365-.133-.265-.133-.365-.265-.331-.265-.1-.133-.033-.166.265.2.3.1.663.232.729.1.729.066,1.359-.166v-3.712h-.4l-.729.033h-.4l-.464-.033-.6-.2-.7-.3-.729-.265-.331-.066-.3-.033-.895.066-.6.066-.464.133-.6.1-1.193.066-.331.033v1.989l.033.033.331.166.331.232.265.3.2.232.166.265.133.265.066.3.133.464v.265l-.033.033-.033-.033-.066-.1-.265-.4-.3-.5-.2-.265-.166-.1-.3-.265-.2-.166h-.1Zm8.717-5.568v-6.1l.265-.033,1.193-.133h.3l.331.066.63.166.7.166.3.066.331.033-.563-.232-.564-.331-.63-.3-.365-.1-.365-.033h-1.16l-.4.066v-3.712h.331l.4.033.4.133.53.1.8.1h1.127l-.1.166-.166.1-.331.2-.365.166-.464.1-.895.166-.431.1-.331.1.7.033.63.033.63.1.53.133.961.3.829.265.331.066h.365l.762-.1.829-.232.862-.2.265.066.3.1.6.265.63.166.331.066h.365l-.563.232-.53.166-.431.066-.365-.033h-.332l-.331.066-.365.2-.265.232-.133.3-.2.232-.166.166-.2.133-.365.232-.166.133-.133.2.994-.033.729.033.563.033.431.1.663.166.3.066.431.033h.4l.331-.1.331-.232.3-.265.033.365v.331l-.033.265-.066.265-.132.265-.133.232-.166.2-.2.2.331.166.3.166.232.2.166.232.166.265.1.3.166.564.066.5v.464l-.066.431-.166-.232-.166-.265-.265-.3-.365-.265-.365-.2-.431-.133-.265-.033-.232.033.2.3.365.729.464,1.027.166.464.066.5.033.994-.1,1.127-.166,1.094-.2.862-.232-.862-.3-.829-.166-.365-.2-.332-.265-.265-.3-.265.232.729.166.862.066.464v.4l-.066.431-.066.331-.133.6-.133.365-.133.4-.232.464-.265.5-.431.5-.53.564-.8.8-.729.8-.6.762-.563.829-.431.829-.365.928-.265.961-.232,1.06-.431-1.425-.4-1.525-.331-1.558-.2-1.458-.265-2.055-.265-1.856-.3-1.723-.365-1.558-.232-.7-.232-.663-.265-.63-.3-.6Zm0,36.525.6.066h.961l1.26-.033,1.326-.2,1.558-.3,1.889-.4.265,1.094.4.994.464.961.265.431.3.4.332.365.364.331.365.365.431.265.4.265.5.232.5.166.53.133.564.232.6.265.464.365.4.365.365.5.265.5.2.563.166.6.033,1.293v.729l-.1.762-.033.53v.431l.033.365.1.3.133.2.2.166.2.133.232.066.53.133.53.232.2.166.232.133.132.232.1.232.232.53.232.431.133.133.166.166.2.133.265.1,1.027.4,1.16.4v-.6l-.1-.63-.2-1.16-.2-.663-.3-.7h-.365l-.232.066-.2.066h-.895l-.265-.066-.232-.066-.1-.53-.1-.4-.2-.3-.265-.232-.265-.133-.166-.232-.1-.3v-.464l.2-1.293.232-1.193.663-2.718.066-.4-.066-.3-.133-.265-.232-.2-.564-.331-.331-.2-.332-.232-.6-.53-.5-.53-.4-.563-.365-.663-.1-.265-.066-.3-.033-.63-.1-.63-.066-.232-.1-.166-.166-.166-.166-.1-.4-.2-.5-.1-.53-.066-1.061-.066-.53-.033-.464-.066.2-.1.3-.1.663-.1.63-.066h.6l.564.066.5.1.431.166.431.232.365.3.3.331.3.4.3.4.464.895.464.928.431.862.5.8.365.431.365.4.464.4.464.365.53.3.53.265.5.232.53.133.63.133.53.033,1.061.133.5.033.464.166.4.133.331.232.232.232.132.232.166.265.133.331.2.7.1.8.1.8.033.829.033,1.591.033.265.066.232.1.2.133.166.133.166.166.1.431.166.431.1.431.033.829.033.3.1.265.2.5.6.3.3.3.265.3.166.166.066.166.033h.6l.365.066.364.066.6.1-.1-.663-.133-.729-.265-.7-.265-.663-.3-.53-.166-.232-.166-.2-.232-.133-.166-.1h-.431l-.829.265-.365.1h-.464l-.033-.3-.033-.265-.1-.265-.1-.166-.232-.3-.3-.2-.3-.2-.265-.133-.2-.265-.033-.133-.033-.166v-1.193l.1-1.16.2-.961.1-.431.166-.4.332-.8.1-.365.066-.332-.033-.331-.132-.365-.2-.331-.365-.365-.331-.133-.365-.066-.3-.066h-.431l-.8.166-.961.265-.431.033-.4-.033-.431-.2-.331-.265-.3-.331-.2-.431-.133-.5-.033-.563.1-1.624.166-1.491.331-3.082.033-.8.033-.762-.033-.7-.066-.7-.166-.663-.166-.7-.232-.63-.331-.63,2.718-1.127,1.326-.7.53-.232.464-.166.431-.1.4-.066h.464l.464.033.762.132.862.2,1.591.53.7.232.63.133.6.166.63.066.563.033.663-.033.63-.066.663-.066.6-.1.53-.166.464-.166.431-.2.762-.431.729-.53-.663.1-.7.033h-1.293l-.862-.1-.133-.066.133-.033,1.392-.3.6-.133.53-.2.5-.232.5-.265.431-.331.431-.4.4-.5.331-.464.232-.53.2-.53.166-.6.1-.63.133-1.492-.928.564-.862.431-.8.331-.961.265h-.961l-.928-.1-.663-.1-.1-.1v-.033l.033-.033.464-.133.464-.066h.464l.4.066-.4-.431-.4-.4-.53-.331-.53-.3-.663-.265-.762-.232-.862-.133-.994-.066-.928.066-.928.133-.895.232-.895.332-.862.4-.829.464-.762.53-.7.563-.365.365-.364.431-.3.431-.331.5-.53.961-.563.961-.564.928-.365.4-.331.365-.4.365-.431.332-.5.265-.564.166-.994-.895-.331-.332-.365-.3-.464-.3-.5-.265-.53-.232-.63-.166-.729-.2-.762-.133-5.2-.166-.63.033h-.564l-.6-.033-.53-.066-1.094-.265-.53-.133-.5-.232-.5-.232-.5-.265-.464-.331-.431-.3-.431-.365-.431-.431-.331-.4-.365-.464-.464-.7-.331-.7-.332-.7-.265-.663-.2-.7-.166-.762-.265-1.591-.232-2.055-.232-1.889-.2-1.757-.232-1.657-.331-1.558-.464-1.558-.066-.232Z" transform="translate(-181.592 -130.966)" fill="#fff" fill-rule="evenodd"></path><path id="Trazado_67" data-name="Trazado 67" d="M3154.668,347.286h10.705l-.365,25.388h-8.253l.166-4.938h-7.093l-2.552,4.938h-9.049l15.611-25.388Zm.133,15.578h2.287l.5-10.871-2.817,5.535-2.85,5.336Z" transform="translate(-2892.346 -321.267)" fill="#fff" fill-rule="evenodd"></path><path id="Trazado_68" data-name="Trazado 68" d="M2116.7,372.674l9.943-25.388h23.2l-1.889,5H2134.7l-1.889,5.038h12.1l-1.989,5h-12.1l-1.988,5.4h13.158l-2.154,4.938Z" transform="translate(-1951.294 -321.267)" fill="#fff" fill-rule="evenodd"></path><path id="Trazado_69" data-name="Trazado 69" d="M1880.862,363.294l15.644-16.009h-9.181l-7.689,8.617-1.061-8.617h-9.313l3.215,16.174-3.58,9.214h8.319Z" transform="translate(-1723.009 -321.267)" fill="#fff" fill-rule="evenodd"></path><path id="Trazado_70" data-name="Trazado 70" d="M2462.785,358.06l2.419-5.8c1.856-.166,4.607,0,4.01,2.287-.729,2.917-3.546,3.513-6.43,3.513m-15.81,14.583h10.208l3.878-9.811,2.751,9.811h10.738l-3.878-12.562c4.342-.431,8.717-2.718,9.678-7.225.961-5.436-5.1-5.634-8.982-5.6h-14.219Z" transform="translate(-2255.548 -321.237)" fill="#fff" fill-rule="evenodd"></path><path id="Trazado_71" data-name="Trazado 71" d="M1188.324,357.543h8.651c-.53,2.32,1.79,3.182,3.58,3.182,1.492,0,3.281-.431,3.812-2.188.53-1.856-2.751-2.287-4.441-3.049-3.149-1.326-5.071-2.42-6-3.745a4.53,4.53,0,0,1-.862-4.375,8.019,8.019,0,0,1,4.11-5.568,16.845,16.845,0,0,1,8.982-2.088c3.679,0,6.53.663,8.22,2.188a5.936,5.936,0,0,1,2.32,6.132h-8.849a1.708,1.708,0,0,0-.531-1.956,3.631,3.631,0,0,0-2.552-.663c-1.16,0-2.95.663-2.95,1.757-.1.961,1.06,1.724,3.712,2.618,1.061.431,1.989.862,2.618,1.094,2.022.862,3.712,1.856,4.541,3.281a6.65,6.65,0,0,1,.63,4.143,8.471,8.471,0,0,1-4.541,5.8c-2.32,1.558-5.668,2.187-9.678,2.187s-7.059-.63-8.982-2.187a6.422,6.422,0,0,1-1.79-6.563" transform="translate(-1095.831 -314.29)" fill="#fff" fill-rule="evenodd"></path><path id="Trazado_72" data-name="Trazado 72" d="M3826.537,372.674h8.319l3.115-8.021,2.784-2.088,2.187,10.109h9.976l-4.143-15.843,12.992-9.545h-9.778l-10.473,8.22,3.182-8.22h-8.353Z" transform="translate(-3526.431 -321.267)" fill="#fff" fill-rule="evenodd"></path><path id="Trazado_73" data-name="Trazado 73" d="M3540,350.02c.895-3.248.663-5.8-.8-7.59-1.425-1.79-4.077-2.685-7.921-2.718a16.614,16.614,0,0,0-7.026,1.624,19.783,19.783,0,0,0-6.264,4.574,21.681,21.681,0,0,0-4.441,7.06q-2.337,6.215-.2,9.744t8.452,3.58a16.835,16.835,0,0,0,9.313-2.751,19.692,19.692,0,0,0,6.795-7.689h-7.988a8.814,8.814,0,0,1-2.419,3.049,5.488,5.488,0,0,1-3.48,1.226,3.18,3.18,0,0,1-2.751-.994,3.141,3.141,0,0,1-.5-2.519,14.652,14.652,0,0,1,.928-3.348,15.53,15.53,0,0,1,3.381-5.535,5.993,5.993,0,0,1,4.143-1.856,3.13,3.13,0,0,1,2.718,1.094,3.478,3.478,0,0,1,.166,3.049Z" transform="translate(-3236.978 -314.29)" fill="#fff" fill-rule="evenodd"></path><path id="Trazado_74" data-name="Trazado 74" d="M2840.787,347.286l-7.756,20.45h12.959l-2.187,4.938H2821l10.043-25.388Z" transform="translate(-2600.107 -321.267)" fill="#fff" fill-rule="evenodd"></path><path id="Trazado_75" data-name="Trazado 75" d="M1509.239,347.286h10.705l-.4,25.388h-8.22l.166-4.938h-7.126l-2.519,4.938h-9.082l15.644-25.388Zm.133,15.578h2.254l.53-10.871-2.817,5.535-2.85,5.336Z" transform="translate(-1376.509 -321.267)" fill="#fff" fill-rule="evenodd"></path><path id="Trazado_76" data-name="Trazado 76" d="M1495.155,783.543l.834-.091-.005.251a1.85,1.85,0,0,0,.212.9,1.177,1.177,0,0,0,.539.486,2.035,2.035,0,0,0,.907.188,1.683,1.683,0,0,0,1.152-.374,1.181,1.181,0,0,0,.426-.929,1.026,1.026,0,0,0-.24-.678,4.318,4.318,0,0,0-1.165-.752,8.894,8.894,0,0,1-.967-.549,2.272,2.272,0,0,1-.682-.74,2.066,2.066,0,0,1,.377-2.385,2.312,2.312,0,0,1,1.64-.554,2.667,2.667,0,0,1,1.226.261,1.973,1.973,0,0,1,.81.768,2.074,2.074,0,0,1,.3,1.08l-.006.16-.829.077.006-.17a1.3,1.3,0,0,0-.189-.68,1.267,1.267,0,0,0-.541-.485,1.8,1.8,0,0,0-.807-.174,1.531,1.531,0,0,0-1.018.309,1.014,1.014,0,0,0-.364.813.891.891,0,0,0,.277.7,8.2,8.2,0,0,0,1.36.813,5.718,5.718,0,0,1,1.076.677,1.809,1.809,0,0,1,.441.622,2.029,2.029,0,0,1,.156.815,2.05,2.05,0,0,1-.686,1.577,2.539,2.539,0,0,1-1.8.63,2.475,2.475,0,0,1-1.823-.619,2.676,2.676,0,0,1-.626-1.948m-8.794-.509h2.11l-.245-1.893q-.144-1.122-.181-1.877a13.789,13.789,0,0,1-.632,1.539Zm-2.329,2.948,3.619-7.542h1.01l1.052,7.542h-.829l-.308-2.17h-2.583l-1.025,2.17Zm-8.614-4.166h1.175a8.043,8.043,0,0,0,1.328-.07,1.446,1.446,0,0,0,.615-.272,1.469,1.469,0,0,0,.417-.516,1.572,1.572,0,0,0,.154-.7,1.162,1.162,0,0,0-.131-.578.729.729,0,0,0-.326-.325,1.88,1.88,0,0,0-.7-.09h-2.089Zm-1.594,4.166,1.335-7.542h2.683a3.152,3.152,0,0,1,1.257.181,1.2,1.2,0,0,1,.572.529,2.349,2.349,0,0,1,.255,1.127,2.193,2.193,0,0,1-.541,1.561,2.726,2.726,0,0,1-1.618.754,2.627,2.627,0,0,1,.553.644,7.485,7.485,0,0,1,.617,1.326l.488,1.421h-.956l-.457-1.4a6.757,6.757,0,0,0-.584-1.352,1.189,1.189,0,0,0-.434-.474,1.668,1.668,0,0,0-.731-.118h-.988l-.595,3.349Zm-10.928,0,1.333-7.542h4.612l-.149.859h-3.761l-.415,2.346h3.656l-.148.861h-3.656l-.468,2.623h4.023l-.154.853Zm-10.41-.853h1.014a4.291,4.291,0,0,0,1.21-.147,1.952,1.952,0,0,0,.889-.571,3.618,3.618,0,0,0,.684-1.19,4.915,4.915,0,0,0,.289-1.744,3.088,3.088,0,0,0-.252-1.366,1.319,1.319,0,0,0-.687-.681,2.765,2.765,0,0,0-.983-.13h-1.132Zm-1,.853,1.333-7.542h1.93a3.782,3.782,0,0,1,.988.1,2.025,2.025,0,0,1,.889.52,2.481,2.481,0,0,1,.6,1.013,4.565,4.565,0,0,1,.212,1.456,5.425,5.425,0,0,1-.348,1.987,4.888,4.888,0,0,1-.862,1.475,2.744,2.744,0,0,1-1.2.811,3.81,3.81,0,0,1-1.249.181Zm-8.554-2.948h2.11l-.245-1.893q-.144-1.122-.181-1.877a13.785,13.785,0,0,1-.632,1.539Zm-2.328,2.948,3.618-7.542h1.01l1.052,7.542h-.829l-.308-2.17h-2.583l-1.025,2.17Zm-11.227,0,1.333-7.542h1.047l.649,4.887c.086.648.14,1.264.165,1.848a22.288,22.288,0,0,1,.887-2.063l2.242-4.671h1.068l-1.333,7.542h-.84l.664-3.668q.234-1.275.664-2.849-.275.735-.686,1.584l-2.374,4.934h-.823l-.644-4.836c-.056-.425-.1-.941-.127-1.549q-.1.962-.207,1.575l-.856,4.81Zm-13.517-2.948h2.11l-.245-1.893q-.144-1.122-.181-1.877a13.739,13.739,0,0,1-.632,1.539Zm-2.329,2.948,3.619-7.542h1.01l1.052,7.542h-.829l-.308-2.17h-2.583l-1.025,2.17Zm-8.614-4.166h1.175a8.045,8.045,0,0,0,1.328-.07,1.446,1.446,0,0,0,.615-.272,1.465,1.465,0,0,0,.417-.516,1.57,1.57,0,0,0,.155-.7,1.165,1.165,0,0,0-.131-.578.73.73,0,0,0-.326-.325,1.88,1.88,0,0,0-.7-.09h-2.089Zm-1.594,4.166,1.335-7.542h2.682a3.154,3.154,0,0,1,1.257.181,1.194,1.194,0,0,1,.572.529,2.343,2.343,0,0,1,.256,1.127,2.192,2.192,0,0,1-.541,1.561,2.726,2.726,0,0,1-1.618.754,2.635,2.635,0,0,1,.553.644,7.467,7.467,0,0,1,.617,1.326l.488,1.421h-.956l-.457-1.4a6.764,6.764,0,0,0-.584-1.352,1.19,1.19,0,0,0-.434-.474,1.668,1.668,0,0,0-.731-.118h-.988l-.595,3.349Zm-8.58-2.948h2.109l-.245-1.893q-.144-1.122-.181-1.877a13.789,13.789,0,0,1-.632,1.539Zm-2.329,2.948,3.619-7.542h1.01l1.052,7.542h-.829l-.308-2.17h-2.583l-1.025,2.17Zm-8.008-3.916h1.409a2.76,2.76,0,0,0,1.148-.183,1.51,1.51,0,0,0,.64-.614,1.823,1.823,0,0,0,.258-.947,1.284,1.284,0,0,0-.135-.632.732.732,0,0,0-.361-.334,2.317,2.317,0,0,0-.823-.1H1384.9Zm-1.545,3.916,1.333-7.542h2.673a2.241,2.241,0,0,1,1.029.183,1.454,1.454,0,0,1,.573.63,2.19,2.19,0,0,1,.238,1.039,2.917,2.917,0,0,1-.381,1.447,2.01,2.01,0,0,1-.994.932,3.949,3.949,0,0,1-1.48.249h-1.594l-.541,3.061Zm-15.631-2.439.835-.091-.005.251a1.849,1.849,0,0,0,.212.9,1.178,1.178,0,0,0,.538.486,2.036,2.036,0,0,0,.907.188,1.681,1.681,0,0,0,1.151-.374,1.181,1.181,0,0,0,.427-.929,1.026,1.026,0,0,0-.24-.678,4.321,4.321,0,0,0-1.165-.752,8.852,8.852,0,0,1-.967-.549,2.279,2.279,0,0,1-.682-.74,2.066,2.066,0,0,1,.377-2.385,2.312,2.312,0,0,1,1.64-.554,2.666,2.666,0,0,1,1.226.261,1.973,1.973,0,0,1,.811.768,2.076,2.076,0,0,1,.3,1.08l-.006.16-.829.077.006-.17a1.3,1.3,0,0,0-.189-.68,1.265,1.265,0,0,0-.541-.485,1.8,1.8,0,0,0-.807-.174,1.531,1.531,0,0,0-1.018.309,1.014,1.014,0,0,0-.365.813.892.892,0,0,0,.277.7,8.217,8.217,0,0,0,1.36.813,5.711,5.711,0,0,1,1.076.677,1.8,1.8,0,0,1,.441.622,2.025,2.025,0,0,1,.156.815,2.051,2.051,0,0,1-.686,1.577,2.54,2.54,0,0,1-1.8.63,2.476,2.476,0,0,1-1.823-.619,2.679,2.679,0,0,1-.626-1.948m-11.142,2.439,1.333-7.542h4.612l-.149.859h-3.761l-.416,2.346h3.657l-.148.861h-3.656l-.468,2.623h4.023l-.154.853Zm-11.378,0,1.335-7.542h.834l1.072,2.829q.478,1.25.751,2.095.19.58.413,1.477.123-.974.3-1.967l.788-4.434h.829l-1.335,7.542h-.844l-1.589-4.356q-.422-1.164-.66-2.033c-.038.492-.122,1.092-.249,1.807l-.815,4.583Zm-10.679-3.108a2.592,2.592,0,0,0,.564,1.751,1.71,1.71,0,0,0,1.333.653,1.916,1.916,0,0,0,1.15-.418,3.11,3.11,0,0,0,.954-1.308,4.826,4.826,0,0,0,.388-1.947,2.714,2.714,0,0,0-.549-1.8,1.681,1.681,0,0,0-1.331-.657,2.1,2.1,0,0,0-1.627.861,4.323,4.323,0,0,0-.881,2.864m-.84-.051a5.1,5.1,0,0,1,1.068-3.365,2.91,2.91,0,0,1,2.316-1.146,2.433,2.433,0,0,1,1.921.9,3.675,3.675,0,0,1,.775,2.49,5.241,5.241,0,0,1-.506,2.321,3.875,3.875,0,0,1-1.275,1.566,2.823,2.823,0,0,1-1.62.525,2.4,2.4,0,0,1-1.332-.381,2.766,2.766,0,0,1-.97-1.152,3.958,3.958,0,0,1-.377-1.754m-7.752,3.159,1.335-7.542h.854l-1.333,7.542Zm-6.535-2.655.845.139a4.083,4.083,0,0,1-1.183,1.986,2.579,2.579,0,0,1-1.7.658,2.287,2.287,0,0,1-1.83-.818,3.63,3.63,0,0,1-.7-2.418,5.475,5.475,0,0,1,.878-3.157,2.86,2.86,0,0,1,2.459-1.4,2.246,2.246,0,0,1,1.618.622,2.646,2.646,0,0,1,.753,1.749l-.8.088q-.248-1.626-1.541-1.626a2.086,2.086,0,0,0-1.823,1.115,4.871,4.871,0,0,0-.7,2.636,2.744,2.744,0,0,0,.495,1.782,1.549,1.549,0,0,0,1.248.6,1.623,1.623,0,0,0,1.137-.453,2.975,2.975,0,0,0,.84-1.5m-15.011-4.887h.854l-.823,4.636a5.522,5.522,0,0,0-.1.858,1.278,1.278,0,0,0,.4.963,1.432,1.432,0,0,0,1.027.381,1.645,1.645,0,0,0,1.349-.659,5.03,5.03,0,0,0,.669-2.028l.733-4.151h.85l-.782,4.425a6.025,6.025,0,0,1-.605,1.938,2.649,2.649,0,0,1-.938.985,2.41,2.41,0,0,1-1.246.327,2.326,2.326,0,0,1-1.68-.593,2.122,2.122,0,0,1-.615-1.6,8.8,8.8,0,0,1,.179-1.368Zm-10.935,7.542,1.335-7.542h.854l-1.184,6.689h3.316l-.149.853Zm-10.605-3.108a2.591,2.591,0,0,0,.564,1.751,1.709,1.709,0,0,0,1.333.653,1.917,1.917,0,0,0,1.15-.418,3.109,3.109,0,0,0,.954-1.308,4.822,4.822,0,0,0,.388-1.947,2.715,2.715,0,0,0-.55-1.8,1.681,1.681,0,0,0-1.331-.657,2.1,2.1,0,0,0-1.627.861,4.323,4.323,0,0,0-.881,2.864m-.84-.051a5.1,5.1,0,0,1,1.068-3.365,2.91,2.91,0,0,1,2.316-1.146,2.433,2.433,0,0,1,1.92.9,3.675,3.675,0,0,1,.775,2.49,5.243,5.243,0,0,1-.506,2.321,3.876,3.876,0,0,1-1.275,1.566,2.824,2.824,0,0,1-1.62.525,2.4,2.4,0,0,1-1.331-.381,2.764,2.764,0,0,1-.97-1.152,3.957,3.957,0,0,1-.377-1.754m-11.1.72.835-.091-.006.251a1.849,1.849,0,0,0,.213.9,1.178,1.178,0,0,0,.539.486,2.034,2.034,0,0,0,.907.188,1.681,1.681,0,0,0,1.151-.374,1.181,1.181,0,0,0,.427-.929,1.027,1.027,0,0,0-.24-.678,4.326,4.326,0,0,0-1.165-.752,8.845,8.845,0,0,1-.967-.549,2.276,2.276,0,0,1-.682-.74,2.068,2.068,0,0,1,.377-2.385,2.312,2.312,0,0,1,1.64-.554,2.667,2.667,0,0,1,1.226.261,1.975,1.975,0,0,1,.81.768,2.077,2.077,0,0,1,.3,1.08l-.006.16-.829.077.006-.17a1.3,1.3,0,0,0-.189-.68,1.264,1.264,0,0,0-.541-.485,1.8,1.8,0,0,0-.807-.174,1.53,1.53,0,0,0-1.018.309,1.014,1.014,0,0,0-.364.813.892.892,0,0,0,.277.7,8.224,8.224,0,0,0,1.361.813,5.7,5.7,0,0,1,1.076.677,1.8,1.8,0,0,1,.441.622,2.023,2.023,0,0,1,.156.815,2.051,2.051,0,0,1-.686,1.577,2.54,2.54,0,0,1-1.8.63,2.476,2.476,0,0,1-1.823-.619,2.678,2.678,0,0,1-.626-1.948" transform="translate(-1171.669 -718.338)" fill="#fff"></path></g></g></svg>