<svg xmlns="http://www.w3.org/2000/svg" width="45.933" height="46.975" viewBox="0 0 45.933 46.975"><g transform="translate(4764.243 -482.079)"><g transform="translate(-4764.243 482.079)"><path d="M32.512,12.539A14.66,14.66,0,0,1,21.173,1.2a1.51,1.51,0,0,0-2.955,0A14.659,14.659,0,0,1,6.879,12.539a1.51,1.51,0,0,0,0,2.955A14.66,14.66,0,0,1,18.218,26.832a1.51,1.51,0,0,0,2.955,0A14.659,14.659,0,0,1,32.512,15.494a1.51,1.51,0,0,0,0-2.955ZM19.7,21.958a17.7,17.7,0,0,0-7.942-7.942A17.7,17.7,0,0,0,19.7,6.074a17.7,17.7,0,0,0,7.942,7.942A17.7,17.7,0,0,0,19.7,21.958Z" transform="translate(-5.679)" fill="#0e336f"></path></g><g transform="translate(-4754.746 513.015)"><path d="M124.032,343.718a6.907,6.907,0,0,1-5.342-5.342,1.51,1.51,0,0,0-2.955,0,6.907,6.907,0,0,1-5.343,5.342,1.51,1.51,0,0,0,0,2.955,6.907,6.907,0,0,1,5.342,5.342,1.51,1.51,0,0,0,2.955,0,6.907,6.907,0,0,1,5.343-5.342,1.51,1.51,0,0,0,0-2.955Zm-6.82,4.176a9.946,9.946,0,0,0-2.7-2.7,9.945,9.945,0,0,0,2.7-2.7,9.946,9.946,0,0,0,2.7,2.7A9.943,9.943,0,0,0,117.212,347.895Z" transform="translate(-109.192 -337.176)" fill="#0e336f"></path></g><g transform="translate(-4738.107 497.158)"><path d="M309.144,172.772a9.336,9.336,0,0,1-7.221-7.221,1.51,1.51,0,0,0-2.955,0,9.336,9.336,0,0,1-7.221,7.221,1.51,1.51,0,0,0,0,2.955,9.336,9.336,0,0,1,7.221,7.221,1.51,1.51,0,0,0,2.955,0,9.336,9.336,0,0,1,7.221-7.221,1.51,1.51,0,0,0,0-2.955Zm-8.7,5.768a12.373,12.373,0,0,0-4.291-4.291,12.372,12.372,0,0,0,4.291-4.291,12.372,12.372,0,0,0,4.291,4.291A12.373,12.373,0,0,0,300.445,178.54Z" transform="translate(-290.547 -164.351)" fill="#0e336f"></path></g></g></svg>