<svg xmlns="http://www.w3.org/2000/svg" width="40.914" height="55.027" viewBox="0 0 40.914 55.027"><g transform="translate(-69.688 0.001)"><g transform="translate(69.688 -0.001)"><g transform="translate(2.275 0)"><path d="M93.353,9.756a1.184,1.184,0,0,0,.851-.344A27.485,27.485,0,0,1,104.2,3.483c7.871-2.569,15.324-.583,22.12,5.87a1.2,1.2,0,0,0,1.7-.045,1.157,1.157,0,0,0,.329-.851,1.2,1.2,0,0,0-.373-.836A26.645,26.645,0,0,0,114.845.391a22.459,22.459,0,0,0-11.321.792A30.26,30.26,0,0,0,92.516,7.724a1.2,1.2,0,0,0-.358.851,1.184,1.184,0,0,0,.344.851A1.309,1.309,0,0,0,93.353,9.756Z" transform="translate(-92.158 0.001)" fill="#0e336f"></path></g><g transform="translate(14.814 5.492)"><path d="M242.075,74.153c-1.225-7.886-4.331-13.547-9.245-16.8-7.139-4.735-15.578-2.688-15.922-2.6a1.2,1.2,0,1,0,.568,2.33c.314-.075,7.692-1.867,13.965,2.285,4.376,2.9,7.169,7.991,8.274,15.145a1.229,1.229,0,0,0,.478.792,1.205,1.205,0,0,0,.7.239.725.725,0,0,0,.179-.015,1.211,1.211,0,0,0,1-1.374Z" transform="translate(-215.99 -54.236)" fill="#0e336f"></path></g><g transform="translate(0 7.5)"><path d="M72.1,91.988c1.075-12.576,9.424-15.473,9.783-15.593a1.183,1.183,0,0,0,.687-.6,1.14,1.14,0,0,0,.06-.911,1.209,1.209,0,0,0-1.523-.762c-.418.134-10.2,3.525-11.411,17.669a1.209,1.209,0,0,0,.284.881,1.223,1.223,0,0,0,.822.418h.1a1.242,1.242,0,0,0,.777-.284A1.256,1.256,0,0,0,72.1,91.988Z" transform="translate(-69.688 -74.064)" fill="#0e336f"></path></g><g transform="translate(1.359 10.092)"><path d="M89.163,114.911a16.253,16.253,0,0,1,3.51-8.259,13.073,13.073,0,0,1,4.794-3.644,11.685,11.685,0,0,1,6.079-.851,17.337,17.337,0,0,1,8.827,4.2,1.2,1.2,0,0,0,1.688-.149,1.158,1.158,0,0,0,.269-.881,1.119,1.119,0,0,0-.433-.807,19.574,19.574,0,0,0-10.067-4.735,13.911,13.911,0,0,0-7.319,1.031,15.558,15.558,0,0,0-5.691,4.316,18.508,18.508,0,0,0-4.048,9.5,45.662,45.662,0,0,1-1.165,6.288c-.6,2.166-1.3,3.6-2.061,4.242a1.24,1.24,0,0,0-.433.822,1.265,1.265,0,0,0,.269.881,1.212,1.212,0,0,0,.926.433,1.189,1.189,0,0,0,.777-.284c1.15-.956,2.106-2.793,2.838-5.452a49.385,49.385,0,0,0,1.24-6.646Z" transform="translate(-83.109 -99.669)" fill="#0e336f"></path></g><g transform="translate(4.495 14.766)"><path d="M141.123,160.781v-.015c-.119-1.09-.239-2.225-.344-3.2-.045-.388-.075-.627-.1-.866-.329-3-.657-5.855-3.271-8.185a10.9,10.9,0,0,0-5.422-2.554,10.6,10.6,0,0,0-4.944.344,10.156,10.156,0,0,0-4.5,2.927,14.376,14.376,0,0,0-3.271,7.393c-.015.06-.015.119-.03.164v.045a51.981,51.981,0,0,1-2.061,9.962c-.941,3.017-1.912,5.108-2.659,5.735a1.24,1.24,0,0,0-.433.822,1.265,1.265,0,0,0,.269.881,1.24,1.24,0,0,0,.822.433,1.264,1.264,0,0,0,.881-.269c1.509-1.255,2.793-4.839,3.42-6.87a54.45,54.45,0,0,0,2.166-10.485,12.111,12.111,0,0,1,2.688-6.183,7.573,7.573,0,0,1,3.435-2.24,8.1,8.1,0,0,1,3.839-.254,8.422,8.422,0,0,1,4.212,1.971c1.927,1.718,2.2,4.122,2.479,6.661.045.344.075.672.1.881.134,1.165.239,2.181.344,3.166.538,5.183,1.105,10.545,3.39,15.578a1.186,1.186,0,0,0,1.09.7,1.171,1.171,0,0,0,.493-.1,1.2,1.2,0,0,0,.6-1.583C142.184,170.922,141.646,165.769,141.123,160.781Z" transform="translate(-114.084 -145.821)" fill="#0e336f"></path></g><g transform="translate(6.873 19.499)"><path d="M157.076,200.541a8.082,8.082,0,0,0-1.225-5.586,5.6,5.6,0,0,0-2.464-1.986,5.286,5.286,0,0,0-2.957-.314,5.227,5.227,0,0,0-3.286,2.091,10.142,10.142,0,0,0-1.284,2.479,21.365,21.365,0,0,0-.881,3.271c-.179.941-.3,1.777-.4,2.569a20.332,20.332,0,0,1-.956,4.436,40.928,40.928,0,0,1-2.509,5.631,38.541,38.541,0,0,1-3.271,5.272,1.2,1.2,0,0,0,1.046,1.957,1.148,1.148,0,0,0,.807-.433,40.649,40.649,0,0,0,3.54-5.661,42.693,42.693,0,0,0,2.659-5.974,23.455,23.455,0,0,0,1.075-4.9c.1-.747.209-1.523.388-2.435a18.04,18.04,0,0,1,.777-2.883,7.462,7.462,0,0,1,.971-1.9,2.788,2.788,0,0,1,1.777-1.135,2.735,2.735,0,0,1,1.613.179,3.166,3.166,0,0,1,1.4,1.15,5.818,5.818,0,0,1,.792,3.973,51.6,51.6,0,0,1-3.331,12.053c-1.957,5.123-4.421,10.186-5.87,12.023a1.209,1.209,0,0,0,.209,1.688,1.242,1.242,0,0,0,.732.254,1.181,1.181,0,0,0,.941-.463c1.6-2.046,4.152-7.244,6.213-12.651A54.532,54.532,0,0,0,157.076,200.541Z" transform="translate(-137.568 -192.57)" fill="#0e336f"></path></g><g transform="translate(32.597 19.378)"><path d="M395.672,202.39c-.239-3.659-.493-7.453-1.762-10.306a1.2,1.2,0,1,0-2.2.971c1.09,2.449,1.329,6.019,1.553,9.484.254,3.809.493,7.408,1.822,9.843a1.166,1.166,0,0,0,.717.583,1.356,1.356,0,0,0,.344.045,1.114,1.114,0,0,0,.568-.149,1.166,1.166,0,0,0,.583-.717,1.144,1.144,0,0,0-.1-.911C396.12,209.261,395.911,205.93,395.672,202.39Z" transform="translate(-391.612 -191.37)" fill="#0e336f"></path></g><g transform="translate(9.978 24.377)"><path d="M179.87,242a1.178,1.178,0,0,0-.314-.866,1.165,1.165,0,0,0-.836-.388,1.2,1.2,0,0,0-1.255,1.135,43.718,43.718,0,0,1-2.748,13.143,33.33,33.33,0,0,1-6.183,10.47,1.206,1.206,0,0,0,.1,1.7,1.141,1.141,0,0,0,.792.3,1.194,1.194,0,0,0,.9-.4,36.18,36.18,0,0,0,6.646-11.217A46.269,46.269,0,0,0,179.87,242Z" transform="translate(-168.231 -240.745)" fill="#0e336f"></path></g><g transform="translate(19.324 38.215)"><path d="M269.739,379.009l-.12-.6a1.215,1.215,0,0,0-.792-.941,1.245,1.245,0,0,0-.926.045,1.207,1.207,0,0,0-.612.687l-.045.134c-.836,2.36-1.658,4.675-2.688,6.99a44.523,44.523,0,0,1-3.823,7.02,1.191,1.191,0,0,0-.179.9,1.17,1.17,0,0,0,.508.762,1.229,1.229,0,0,0,.672.209,1.207,1.207,0,0,0,1-.523,47.265,47.265,0,0,0,4.033-7.393c.463-1.045.911-2.151,1.389-3.42a26.442,26.442,0,0,0,2.614,6.661,1.184,1.184,0,0,0,.717.568,1.209,1.209,0,0,0,.911-.1,1.227,1.227,0,0,0,.568-.717,1.209,1.209,0,0,0-.1-.911A31.128,31.128,0,0,1,269.739,379.009Z" transform="translate(-260.531 -377.402)" fill="#0e336f"></path></g></g></g></svg>