<svg xmlns="http://www.w3.org/2000/svg" width="42.597" height="42.597" viewBox="0 0 42.597 42.597"><g transform="translate(0 0)"><path d="M113.385,64.121A13.727,13.727,0,0,0,95.238,84.694a10.522,10.522,0,0,1,3.253,7.555v2.579a3.748,3.748,0,0,0,3.744,3.744h4.992a3.748,3.748,0,0,0,3.744-3.744V91.506a9.333,9.333,0,0,1,3.168-6.732,13.729,13.729,0,0,0-.754-20.653Zm-6.159,31.955h-4.992a1.25,1.25,0,0,1-1.248-1.248V93.5h7.488v1.331A1.25,1.25,0,0,1,107.227,96.076Zm-2.5-13.564-3.386-5.079.89-.89,1.614,1.614a1.248,1.248,0,0,0,1.765,0l1.614-1.614.89.89Zm7.7.445A11.909,11.909,0,0,0,108.487,91h-2.508V85.139l4.714-7.07L113.1,75.66a1.248,1.248,0,1,0-1.765-1.765l-1.613,1.614-1.614-1.614a1.248,1.248,0,0,0-1.765,0l-1.614,1.614-1.613-1.614a1.248,1.248,0,0,0-1.765,0l-1.614,1.614-1.614-1.614A1.248,1.248,0,0,0,96.36,75.66l2.409,2.409,4.714,7.07V91h-2.558a13.068,13.068,0,0,0-3.96-8.109A11.236,11.236,0,0,1,102.3,63.8a11.332,11.332,0,0,1,9.511,2.258,11.232,11.232,0,0,1,.618,16.9Zm0,0" transform="translate(-83.432 -55.974)" fill="#0e336f"></path><path d="M4.992,212.248A1.248,1.248,0,0,0,3.744,211h-2.5a1.248,1.248,0,1,0,0,2.5h2.5A1.248,1.248,0,0,0,4.992,212.248Zm0,0" transform="translate(0 -193.445)" fill="#0e336f"></path><path d="M455.744,211h-2.5a1.248,1.248,0,1,0,0,2.5h2.5a1.248,1.248,0,0,0,0-2.5Zm0,0" transform="translate(-414.395 -193.445)" fill="#0e336f"></path><path d="M37.186,92.414l-2.162-1.248a1.248,1.248,0,0,0-1.248,2.162l2.162,1.248a1.248,1.248,0,1,0,1.248-2.162Zm0,0" transform="translate(-30.394 -83.427)" fill="#0e336f"></path><path d="M426.895,317.414l-2.162-1.248a1.248,1.248,0,0,0-1.248,2.162l2.161,1.248a1.248,1.248,0,0,0,1.248-2.161Zm0,0" transform="translate(-387.68 -289.708)" fill="#0e336f"></path><path d="M122.412,4.034a1.248,1.248,0,0,0,2.161-1.248L123.325.625a1.248,1.248,0,1,0-2.162,1.248Zm0,0" transform="translate(-110.93 0)" fill="#0e336f"></path><path d="M35.938,316.166l-2.162,1.248a1.248,1.248,0,0,0,1.248,2.161l2.162-1.248a1.248,1.248,0,1,0-1.248-2.162Zm0,0" transform="translate(-30.394 -289.708)" fill="#0e336f"></path><path d="M424.733,94.577l2.162-1.248a1.248,1.248,0,0,0-1.248-2.162l-2.161,1.248a1.248,1.248,0,0,0,1.248,2.162Zm0,0" transform="translate(-387.68 -83.429)" fill="#0e336f"></path><path d="M346.621,4.491a1.248,1.248,0,0,0,1.7-.457l1.248-2.162A1.248,1.248,0,1,0,347.412.625l-1.248,2.162A1.248,1.248,0,0,0,346.621,4.491Zm0,0" transform="translate(-317.21 0)" fill="#0e336f"></path></g></svg>