<svg xmlns="http://www.w3.org/2000/svg" width="44.24" height="46.155" viewBox="0 0 44.24 46.155"><path d="M32.733,8.96A14.107,14.107,0,1,0,46.84,23.067,14.123,14.123,0,0,0,32.733,8.96Zm0,25.329A11.222,11.222,0,1,1,43.955,23.067,11.222,11.222,0,0,1,32.733,34.289ZM54.69,28.058l-1.476-4.8a.578.578,0,0,1,0-.388l1.477-4.8A3.508,3.508,0,0,0,53.431,14.2l-4.015-3.013a.578.578,0,0,1-.228-.314l-1.625-4.75a3.508,3.508,0,0,0-3.3-2.4l-5.019-.078a.578.578,0,0,1-.369-.12L34.771.642a3.508,3.508,0,0,0-4.076,0L26.589,3.529a.578.578,0,0,1-.369.12L21.2,3.727a3.508,3.508,0,0,0-3.3,2.4l-1.625,4.749a.579.579,0,0,1-.228.314L12.036,14.2a3.508,3.508,0,0,0-1.259,3.876l1.476,4.8a.579.579,0,0,1,0,.388l-1.477,4.8a3.508,3.508,0,0,0,1.259,3.876l4.015,3.013a.578.578,0,0,1,.228.314l1.625,4.75a3.508,3.508,0,0,0,3.3,2.4l5.019.078a.578.578,0,0,1,.369.12L30.7,45.492a3.508,3.508,0,0,0,4.076,0L38.877,42.6a.578.578,0,0,1,.369-.12l5.019-.078a3.508,3.508,0,0,0,3.3-2.4l1.625-4.749a.579.579,0,0,1,.228-.314l4.015-3.013A3.508,3.508,0,0,0,54.69,28.058ZM51.7,29.628l-4.015,3.013a3.436,3.436,0,0,0-1.225,1.687l-1.625,4.749a.629.629,0,0,1-.613.445L39.2,39.6a3.437,3.437,0,0,0-1.982.644l-4.107,2.887a.629.629,0,0,1-.758,0l-4.107-2.887a3.437,3.437,0,0,0-1.982-.644l-5.019-.078a.629.629,0,0,1-.613-.445l-1.625-4.749a3.436,3.436,0,0,0-1.225-1.687l-4.015-3.013a.629.629,0,0,1-.234-.721l1.477-4.8a3.437,3.437,0,0,0,0-2.085l-1.477-4.8a.629.629,0,0,1,.234-.721l4.015-3.013a3.437,3.437,0,0,0,1.225-1.687l1.625-4.749a.629.629,0,0,1,.613-.445l5.019-.078a3.436,3.436,0,0,0,1.983-.644L32.354,3a.629.629,0,0,1,.758,0l4.106,2.887a3.436,3.436,0,0,0,1.983.644l5.019.078a.629.629,0,0,1,.613.445l1.625,4.749a3.437,3.437,0,0,0,1.225,1.687L51.7,16.506a.629.629,0,0,1,.234.721l-1.477,4.8a3.436,3.436,0,0,0,0,2.085l1.477,4.8a.629.629,0,0,1-.234.721ZM40.557,17.966A1.442,1.442,0,0,1,40.469,20l-9,8.252a1.442,1.442,0,0,1-.974.379l-.082,0a1.442,1.442,0,0,1-1.007-.494l-4.518-5.2a1.442,1.442,0,1,1,2.178-1.891l3.546,4.083,7.912-7.251A1.442,1.442,0,0,1,40.557,17.966Z" transform="translate(-10.613 0.011)" fill="#0e336f"></path></svg>