<svg xmlns="http://www.w3.org/2000/svg" width="41.117" height="48.731" viewBox="0 0 41.117 48.731"><path d="M79.943,7.891,61.288.146a1.9,1.9,0,0,0-1.46,0L41.174,7.891A1.9,1.9,0,0,0,40,9.649v9.415A31.878,31.878,0,0,0,59.839,48.59a1.9,1.9,0,0,0,1.439,0A31.878,31.878,0,0,0,81.117,19.064V9.649A1.9,1.9,0,0,0,79.943,7.891ZM77.31,19.064a28.077,28.077,0,0,1-16.751,25.7,28.078,28.078,0,0,1-16.751-25.7V10.92L60.558,3.965,77.31,10.92ZM58.454,25.481,66.636,17.3a1.9,1.9,0,1,1,2.692,2.692L59.8,29.519a1.9,1.9,0,0,1-2.692,0l-5.32-5.32a1.9,1.9,0,0,1,2.692-2.692Z" transform="translate(-40 0)" fill="#0e336f"></path></svg>